<svg width="222" height="59" viewBox="0 0 222 59" fill="none" xmlns="http://www.w3.org/2000/svg">
<path d="M33.9 7.34998C33.9 9.59998 33.95 13.075 34.05 17.775L34.125 20.7C34.225 23.7 34.275 26.15 34.275 28.05C34.275 29.95 34.25 31.375 34.2 32.325C34.15 32.975 34.125 34 34.125 35.4C34.025 39.05 33.8 42.1 33.45 44.55C33.1 47 32.25 49.3 30.9 51.45C29.6 53.6 27.575 55.175 24.825 56.175V56.1C22.375 57.35 19.4 57.975 15.9 57.975C13.9 57.975 11.95 57.775 10.05 57.375C6.4 56.275 3.8 53.875 2.25 50.175C0.75 46.425 0 42.25 0 37.65L0.0749999 36.525V35.25C1.525 34.85 3.475 34.65 5.925 34.65C8.775 34.65 11.45 34.9 13.95 35.4V36C14.35 41.3 15.55 44.025 17.55 44.175C18.5 44.375 19.225 44 19.725 43.05C20.275 42.05 20.625 40.8 20.775 39.3C20.575 30.9 20.475 23.825 20.475 18.075C20.475 13.525 20.55 8.92498 20.7 4.27498V3.37498L33.9 3.22498V7.34998Z" fill="#3E111B"/>
<path d="M69.5918 19.275C69.5918 19.525 69.6168 19.95 69.6668 20.55C69.7668 21.15 69.8168 21.7 69.8168 22.2C69.7668 23.5 69.7418 25.45 69.7418 28.05C69.7418 31.55 69.7668 34.175 69.8168 35.925V40.425L69.8918 44.925C69.8918 47.875 69.8168 50.9 69.6668 54V54.75C69.6668 55.55 69.5668 56.175 69.3668 56.625C69.1668 57.025 68.6418 57.3 67.7918 57.45H58.2668C57.1168 57.1 56.5418 56.425 56.5418 55.425V54.9C55.2918 55.7 53.9168 56.35 52.4168 56.85C50.9168 57.3 49.4668 57.525 48.0668 57.525C45.4168 57.525 43.1668 56.45 41.3168 54.3C39.5168 52.15 38.1668 49.5 37.2668 46.35C36.3668 43.15 35.9168 40.05 35.9168 37.05C35.9168 33.75 36.5168 30.775 37.7168 28.125C38.9168 25.425 40.5668 23.3 42.6668 21.75C44.7668 20.2 47.0918 19.4 49.6418 19.35C51.1918 19.35 52.6418 19.475 53.9918 19.725C55.3418 19.975 56.1918 20.275 56.5418 20.625C56.5418 20.375 56.4918 20.05 56.3918 19.65C56.2918 19.25 56.3168 18.95 56.4668 18.75C56.5668 18.65 56.9168 18.6 57.5168 18.6C58.4168 18.6 59.5918 18.675 61.0418 18.825C62.5418 18.925 63.4918 19 63.8918 19.05L68.6168 19.275H69.5918ZM47.3918 38.55C47.3918 40.75 47.8918 42.6 48.8918 44.1C49.8918 45.55 51.2418 46.275 52.9418 46.275C54.0418 46.275 54.8418 45.975 55.3418 45.375C55.8418 44.775 56.1418 43.975 56.2418 42.975C56.3918 41.975 56.4668 40.475 56.4668 38.475V36.525C56.4668 34.375 56.4168 32.925 56.3168 32.175C56.2668 31.375 56.0418 30.85 55.6418 30.6C55.2918 30.3 54.6418 30.15 53.6918 30.15C52.0918 30.15 50.7918 30.6 49.7918 31.5C48.7918 32.35 48.1418 33.4 47.8418 34.65C47.5418 35.65 47.3918 36.95 47.3918 38.55Z" fill="#3E111B"/>
<path d="M85.0107 22.2C85.0607 22.2 85.0607 22.2 85.0107 22.2C85.0107 22.15 85.0357 22.125 85.0857 22.125C86.2857 21.325 87.6607 20.7 89.2107 20.25C90.8107 19.75 92.3857 19.5 93.9357 19.5C97.2357 19.5 99.7858 20.3 101.586 21.9C101.586 21.95 101.736 22.125 102.036 22.425C102.086 22.425 102.086 22.45 102.036 22.5C101.986 22.5 101.986 22.525 102.036 22.575L102.711 22.125C103.911 21.325 105.286 20.7 106.836 20.25C108.386 19.75 109.961 19.5 111.561 19.5C114.861 19.5 117.411 20.3 119.211 21.9C120.611 23.15 121.311 27.275 121.311 34.275C121.311 36.325 121.261 39.45 121.161 43.65C121.061 47.25 121.011 49.825 121.011 51.375C121.011 53.075 121.061 54.975 121.161 57.075C118.411 57.475 115.711 57.625 113.061 57.525H109.536C109.436 56.025 109.386 53.125 109.386 48.825V45.075C109.386 42.275 109.311 40.175 109.161 38.775C108.911 36.175 108.561 34.425 108.111 33.525C107.661 32.625 106.886 32.175 105.786 32.175C105.286 32.175 104.861 32.375 104.511 32.775C104.161 33.125 103.886 33.875 103.686 35.025C103.686 37.125 103.636 40.375 103.536 44.775C103.436 48.075 103.386 50.45 103.386 51.9C103.386 53.45 103.436 55.175 103.536 57.075C100.786 57.475 98.0857 57.625 95.4357 57.525H91.9107C91.8107 56.025 91.7607 53.125 91.7607 48.825V45.075C91.7607 42.625 91.7107 40.85 91.6107 39.75C91.6107 39.7 91.5857 39.625 91.5357 39.525C91.5357 39.375 91.5357 39.125 91.5357 38.775C91.4357 37.125 91.2607 35.775 91.0107 34.725C90.8107 33.675 90.4107 32.95 89.8107 32.55C89.4107 32.3 88.8357 32.175 88.0857 32.175C87.1857 32.175 86.3857 32.5 85.6857 33.15C84.9857 33.8 84.6107 34.875 84.5607 36.375C84.5107 37.125 84.4857 38.275 84.4857 39.825C84.4857 41.075 84.5357 42.9 84.6357 45.3C84.7357 47.8 84.7857 49.675 84.7857 50.925C84.7857 53.175 84.6857 55.175 84.4857 56.925C83.1357 57.275 82.0357 57.475 81.1857 57.525C80.3857 57.625 79.4857 57.65 78.4857 57.6C78.0357 57.55 77.3107 57.525 76.3107 57.525C75.1607 57.525 74.0357 57.575 72.9357 57.675C72.9357 51.675 72.9107 47.225 72.8607 44.325C72.7607 37.825 72.7107 32.9 72.7107 29.55C72.7107 27.1 72.7607 23.625 72.8607 19.125C74.4607 19.325 75.7107 19.425 76.6107 19.425C77.4607 19.425 78.2857 19.375 79.0857 19.275L80.3607 19.125C81.4607 19.025 82.3107 18.975 82.9107 18.975C84.1107 18.975 84.7607 19.15 84.8607 19.5C84.9607 20.1 85.0107 20.975 85.0107 22.125V22.2Z" fill="#3E111B"/>
<path d="M136.205 5.09998C136.255 5.49998 136.305 6.84998 136.355 9.14998C136.455 11.4 136.505 13.475 136.505 15.375L136.43 19.8C138.33 19.25 140.505 18.975 142.955 18.975C145.805 18.975 148.18 19.325 150.08 20.025C152.33 20.925 154.03 22.825 155.18 25.725C156.33 28.575 156.905 31.875 156.905 35.625C156.755 39.775 156.355 43.3 155.705 46.2C155.055 49.05 153.755 51.5 151.805 53.55C149.855 55.6 147.005 56.8 143.255 57.15H143.33C143.08 57.2 142.705 57.225 142.205 57.225C139.805 57.225 137.905 56.3 136.505 54.45V56.325C136.505 56.625 136.38 56.9 136.13 57.15C134.78 57.35 133.23 57.45 131.48 57.45L126.155 57.3H124.055C124.005 55.35 123.98 52.2 123.98 47.85C123.98 42.05 124.055 36.05 124.205 29.85C124.405 21.45 124.505 14.55 124.505 9.14998V4.04998C126.155 3.69998 127.98 3.52498 129.98 3.52498C131.53 3.52498 132.955 3.62498 134.255 3.82498C135.555 3.97498 136.205 4.12498 136.205 4.27498V5.09998ZM145.58 33.45C145.33 31.8 144.68 30.55 143.63 29.7C142.63 28.85 141.28 28.425 139.58 28.425C138.43 28.425 137.63 28.6 137.18 28.95C136.73 29.3 136.43 30 136.28 31.05C136.18 32.1 136.13 33.975 136.13 36.675C136.13 40.325 136.38 43 136.88 44.7C137.38 46.35 138.555 47.175 140.405 47.175C142.105 47.175 143.48 46.25 144.53 44.4C145.58 42.5 146.105 40.275 146.105 37.725C146.105 35.725 145.955 34.325 145.655 33.525L146.03 33.75L145.58 33.45Z" fill="#3E111B"/>
<path d="M171.445 15.675V17.85L171.37 25.2C171.27 32.5 171.22 37.95 171.22 41.55C171.22 48.3 171.32 53.3 171.52 56.55C171.27 56.9 170.745 57.125 169.945 57.225C169.195 57.375 168.145 57.45 166.795 57.45C165.245 57.45 164.17 57.425 163.57 57.375C161.62 57.275 159.97 57.425 158.62 57.825C158.97 53.025 159.145 48.575 159.145 44.475C159.145 41.475 159.045 36.975 158.845 30.975C158.645 24.475 158.545 19.575 158.545 16.275C158.545 11.275 158.77 6.54998 159.22 2.09998L171.595 2.32498L171.445 15.675Z" fill="#3E111B"/>
<path d="M185.624 40.35C185.674 42 185.749 43.225 185.849 44.025C185.999 44.775 186.349 45.575 186.899 46.425C187.299 47.175 187.824 47.75 188.474 48.15C189.124 48.55 189.799 48.75 190.499 48.75C191.549 48.75 192.399 48.2 193.049 47.1C193.699 45.95 193.974 44.275 193.874 42.075C195.324 42.275 196.874 42.325 198.524 42.225L205.574 42.6C205.574 44.85 205.399 47.125 205.049 49.425C204.749 51.725 204.149 53.475 203.249 54.675C202.249 56.075 200.799 57.025 198.899 57.525C197.049 58.075 194.874 58.35 192.374 58.35C191.424 58.35 190.099 58.3 188.399 58.2C187.599 58.15 186.424 58.125 184.874 58.125C183.324 57.925 181.774 57.375 180.224 56.475C177.824 54.575 176.049 51.875 174.899 48.375C173.749 44.875 173.174 41.075 173.174 36.975C173.174 32.675 173.774 28.725 174.974 25.125C175.974 22.875 177.824 21.125 180.524 19.875C183.224 18.625 186.224 18 189.524 18C191.324 18 193.074 18.2 194.774 18.6C198.624 19.35 201.424 21.175 203.174 24.075C204.974 26.925 205.874 30.35 205.874 34.35C205.874 35 205.824 36.125 205.724 37.725C204.774 37.975 202.599 38.225 199.199 38.475C195.799 38.675 192.624 38.775 189.674 38.775H185.624V40.35ZM192.974 26.85C192.224 26.4 191.549 26.175 190.949 26.175C189.199 26.175 187.949 26.575 187.199 27.375C186.449 28.175 185.999 29.3 185.849 30.75C185.799 30.95 185.774 31.175 185.774 31.425C185.774 31.725 185.924 31.9 186.224 31.95C186.524 32 187.274 32 188.474 31.95H191.774L194.024 32.025H194.999C195.149 32.075 195.249 32.075 195.299 32.025C195.349 31.975 195.374 31.875 195.374 31.725V31.425C195.374 30.375 195.174 29.45 194.774 28.65C194.424 27.85 193.924 27.275 193.274 26.925L192.974 26.85Z" fill="#3E111B"/>
<path d="M196 16.5C203.18 16.5 209 23.8873 209 33C209 23.8873 214.82 16.5 222 16.5C214.82 16.5 209 9.1127 209 0C209 9.1127 203.18 16.5 196 16.5Z" fill="#FEA57D"/>
</svg>
