<svg width="65" height="64" viewBox="0 0 65 64" fill="none" xmlns="http://www.w3.org/2000/svg">
<path d="M28.3972 4.671C28.7109 3.38245 29.1042 2.06045 30.0077 1.08985C30.9113 0.119247 32.4591 -0.366086 33.5886 0.324212C34.6427 0.96849 34.9606 2.33239 35.1196 3.55819C35.7282 8.25223 35.3983 13.0204 34.1491 17.5858C37.9091 13.6337 42.9488 11.1433 48.372 10.5574C49.2086 10.4653 50.1414 10.4486 50.8108 10.9757C51.1375 11.2784 51.373 11.6664 51.4906 12.096C51.6081 12.5256 51.603 12.9796 51.4759 13.4064C51.2086 14.2638 50.7477 15.0482 50.1289 15.699C48.0003 18.1936 45.3613 20.2023 42.39 21.5896C45.6612 21.8908 48.9534 21.3637 52.2372 21.3344C55.521 21.3051 59.0056 21.8615 61.5281 23.9701C62.2434 24.5683 62.9127 25.4887 62.599 26.3673C62.3313 27.1078 61.4946 27.4508 60.7417 27.6893C56.5944 29.0035 52.2886 29.7508 47.9411 29.9108C53.6145 30.4559 58.9795 32.7462 63.2976 36.4665C64.2263 37.2698 65.18 38.3534 64.9709 39.5624C64.791 40.5707 63.7996 41.2777 62.7914 41.4576C61.7691 41.5688 60.735 41.4735 59.7502 41.1773L43.5613 37.412C47.891 42.0271 50.3999 48.0562 50.6225 54.3808C50.6565 54.6595 50.607 54.9419 50.4803 55.1924C50.3804 55.323 50.2545 55.4314 50.1104 55.5106C49.9664 55.5899 49.8074 55.6382 49.6436 55.6526C47.5897 56.0041 45.8788 54.1716 44.6238 52.4898C42.1474 49.1226 39.8437 45.6318 37.7215 42.0308C37.7215 48.7246 37.6211 55.7614 34.4168 61.6519C33.8939 62.6142 32.8858 63.6726 31.9069 63.2166C31.582 63.038 31.3127 62.773 31.1288 62.451C29.9617 60.6646 29.7442 58.4305 29.5936 56.2969C29.2311 51.1259 29.0498 45.948 29.0498 40.7631C24.6156 46.9591 19.9388 53.3767 13.2039 56.9412C12.0869 57.5352 10.4471 57.916 9.76945 56.8491C9.50413 56.3088 9.44178 55.6912 9.59376 55.1088C10.673 48.415 15.9857 43.3695 21.0013 38.8303C14.8423 39.8047 8.56101 39.7042 2.43632 38.5332C1.36542 38.3282 0.0602652 37.8262 0.00170054 36.7385C-0.0359482 35.998 0.558065 35.3872 1.13535 34.9228C6.86632 30.2957 14.7349 29.6389 22.0848 29.1787C15.932 28.229 10.2992 25.1742 6.14681 20.5353C4.89185 19.138 3.76657 17.4896 3.67873 15.6196C3.62904 15.248 3.72169 14.8714 3.93808 14.5653C4.10865 14.4151 4.3076 14.3007 4.52316 14.2289C4.73872 14.157 4.96651 14.1291 5.19304 14.1469C8.49481 14.0011 11.7823 14.6624 14.7709 16.0738C17.7595 17.4851 20.3589 19.6038 22.3441 22.2464C19.8799 20.4538 17.8132 18.1707 16.274 15.5406C14.7349 12.9104 13.7565 9.99022 13.4005 6.96362C13.3247 6.61191 13.3643 6.24514 13.5134 5.91771C13.7234 5.61589 14.0379 5.40275 14.3961 5.31948C16.0986 4.77561 18.0062 5.21908 19.5205 6.15621C21.0348 7.09334 22.1935 8.5534 23.2184 10.0009C24.7718 12.1853 26.0267 14.5673 26.9498 17.0838C27.1883 12.896 27.3891 8.79187 28.3972 4.671Z" fill="#FEA57D"/>
<path d="M28.5395 26.9906C27.1183 27.9669 26.1117 29.4375 25.7158 31.1157C25.4732 32.1742 25.5108 33.3791 26.1801 34.2409C26.9038 35.178 28.1672 35.496 29.3468 35.6257C30.9971 35.8613 32.6794 35.7183 34.2663 35.2073C35.0574 34.9494 35.7867 34.5309 36.4087 33.978C37.0306 33.4251 37.5317 32.7498 37.8805 31.9943C38.5164 30.4589 38.2528 28.5219 37.0439 27.3923C34.8561 25.3842 30.8904 25.3925 28.5395 26.9906Z" fill="#F3E5DA"/>
</svg>
